<?xml version="1.0" standalone="no"?>
<!DOCTYPE svg PUBLIC "-//W3C//DTD SVG 1.1//EN" "http://www.w3.org/Graphics/SVG/1.1/DTD/svg11.dtd">
<svg t="1547703003859" class="icon" style="" viewBox="0 0 1484 1024" version="1.1" xmlns="http://www.w3.org/2000/svg" p-id="1543" xmlns:xlink="http://www.w3.org/1999/xlink" width="289.84375" height="200">
<defs>
<style type="text/css">
</style>
</defs>
<path d="M570.69193431 132.98940132h-42.422242v121.171808h42.422242zM313.35993231 254.16120932h84.763757V132.98940132h-84.763757z m-17.369842 48.880433V85.33333332l-146.654754 108.241972zM975.86269231 134.60394832h-42.812425v121.171809H975.45905531z m11.315288 222.148316a430.73443 430.73443 0 0 0-85.234666 48.073159c-23.841488 16.966206-107.461607 70.273191-124.427813 77.955747a196.746098 196.746098 0 0 0-56.953172 44.023336 409.556945 409.556945 0 0 1-53.333894 40.363693 107.434698 107.434698 0 0 0-12.916382 10.508015 30.851317 30.851317 0 0 0-4.857098-9.700741 33.178956 33.178956 0 0 0-13.73711-4.843643c2.838913-4.857098 6.068009 0 13.73711-10.508015s2.825459-16.145477 5.260735-20.598938a33.138593 33.138593 0 0 0 25.846219-9.687287 116.866348 116.866348 0 0 0 28.254585-25.052399 78.211384 78.211384 0 0 0 8.880013-23.02076c2.435276-16.952751-2.421822-25.846219-11.705471-28.671677-15.755295-4.843643-40.363694 17.369843-40.363694 17.369843a46.754612 46.754612 0 0 0-9.687287 2.825458 92.580859 92.580859 0 0 0-40.363693 5.24728c-7.669102 2.421822-22.213486 25.846219-36.757871 46.862249s-40.363694 45.234246-43.619698 63.815a575.761181 575.761181 0 0 0-4.453461 113.892889 750.482157 750.482157 0 0 0 19.791665 105.026331c4.036369 27.864403-3.632732 58.971356 0 80.727387 5.664372 65.833184 220.574131 102.254691 226.628685 94.101225s10.104378-6.054554 8.476376-12.109109 3.646187-6.861828 9.297104-18.163662c2.421822-4.036369 2.825459-14.140747 6.068009-19.388027 8.476376-14.140747 84.427393-84.427393 121.185263-123.997267a81.050297 81.050297 0 0 0 16.966205-27.877858c4.036369-9.687286 0 0 3.632733-16.145478a318.711725 318.711725 0 0 0 12.929836-53.710621 32.290955 32.290955 0 0 0-8.072738-25.859673 128.343091 128.343091 0 0 0 22.146213-53.253167 33.636411 33.636411 0 0 0-20.181847-29.896042 192.279182 192.279182 0 0 0 14.544384-40.363694c2.825459-12.109108-9.687286-26.653492-24.635307-40.363694a70.717191 70.717191 0 0 0-59.388448-5.24728c-19.603301 7.090556 51.302255-37.565144 67.864823-53.320439 5.260735-5.24728 31.106953-20.181847 48.880433-31.900773a102.927419 102.927419 0 0 0 27.070584-21.809849c6.054554-7.682556 9.28365-12.929837 8.072739-18.984391-7.265465-22.213486-18.177117-33.125138-45.234246-27.877857z m118.763442-102.187418h84.763757V133.39303832h-84.763757z m-87.656488 0h57.356808V133.39303832h-57.7739z m-589.794293 0h57.370264V133.39303832h-57.773901zM1208.14229431 85.33333332v216.093761L1354.37995731 193.23894132z m0 0" fill="#333333" p-id="1544">
</path>
</svg>